<svg width="379" height="145" viewBox="0 0 379 145" fill="none" xmlns="http://www.w3.org/2000/svg">
<path d="M160.064 8C160.064 3.58172 163.646 0 168.064 0H370.064C374.482 0 378.064 3.58172 378.064 8V80C378.064 84.4183 374.482 88 370.064 88H168.064C163.646 88 160.064 84.4183 160.064 80V8Z" fill="#0F172A"/>
<path d="M54.4 64.92C59.6053 66.0293 63.7867 68.632 66.944 72.728C70.1013 76.7387 71.68 81.3467 71.68 86.552C71.68 94.0613 69.0347 100.035 63.744 104.472C58.5387 108.824 51.2427 111 41.856 111H0V21.144H40.448C49.5787 21.144 56.704 23.2347 61.824 27.416C67.0293 31.5973 69.632 37.272 69.632 44.44C69.632 49.7307 68.224 54.1253 65.408 57.624C62.6773 61.1227 59.008 63.5547 54.4 64.92ZM21.888 57.496H36.224C39.808 57.496 42.5387 56.728 44.416 55.192C46.3787 53.5707 47.36 51.224 47.36 48.152C47.36 45.08 46.3787 42.7333 44.416 41.112C42.5387 39.4907 39.808 38.68 36.224 38.68H21.888V57.496ZM38.016 93.336C41.6853 93.336 44.5013 92.5253 46.464 90.904C48.512 89.1973 49.536 86.7653 49.536 83.608C49.536 80.4507 48.4693 77.976 46.336 76.184C44.288 74.392 41.4293 73.496 37.76 73.496H21.888V93.336H38.016Z" fill="#F9FAFB"/>
<path d="M157.335 39.576L112.535 144.92H88.983L105.367 108.568L76.311 39.576H100.759L117.271 84.248L133.655 39.576H157.335Z" fill="#F9FAFB"/>
<path d="M187.138 51.48C189.698 47.5547 192.898 44.4827 196.738 42.264C200.578 39.96 204.845 38.808 209.538 38.808V61.976H203.522C198.061 61.976 193.965 63.1707 191.234 65.56C188.503 67.864 187.138 71.96 187.138 77.848V111H165.25V39.576H187.138V51.48Z" fill="#F9FAFB"/>
<path d="M215.648 75.16C215.648 67.8213 217.013 61.3787 219.744 55.832C222.56 50.2853 226.357 46.0187 231.136 43.032C235.915 40.0453 241.248 38.552 247.136 38.552C251.829 38.552 256.096 39.5333 259.936 41.496C263.861 43.4587 266.933 46.104 269.152 49.432V16.28H291.04V111H269.152V100.76C267.104 104.173 264.16 106.904 260.32 108.952C256.565 111 252.171 112.024 247.136 112.024C241.248 112.024 235.915 110.531 231.136 107.544C226.357 104.472 222.56 100.163 219.744 94.616C217.013 88.984 215.648 82.4987 215.648 75.16ZM269.152 75.288C269.152 69.8267 267.616 65.5173 264.544 62.36C261.557 59.2027 257.888 57.624 253.536 57.624C249.184 57.624 245.472 59.2027 242.4 62.36C239.413 65.432 237.92 69.6987 237.92 75.16C237.92 80.6213 239.413 84.9733 242.4 88.216C245.472 91.3733 249.184 92.952 253.536 92.952C257.888 92.952 261.557 91.3733 264.544 88.216C267.616 85.0587 269.152 80.7493 269.152 75.288Z" fill="#F9FAFB"/>
<path d="M374.203 74.136C374.203 76.184 374.075 78.3173 373.819 80.536H324.283C324.624 84.9733 326.032 88.3867 328.507 90.776C331.067 93.08 334.182 94.232 337.851 94.232C343.312 94.232 347.11 91.928 349.243 87.32H372.539C371.344 92.0133 369.168 96.2373 366.011 99.992C362.939 103.747 359.056 106.691 354.363 108.824C349.67 110.957 344.422 112.024 338.619 112.024C331.622 112.024 325.392 110.531 319.931 107.544C314.47 104.557 310.203 100.291 307.131 94.744C304.059 89.1973 302.523 82.712 302.523 75.288C302.523 67.864 304.016 61.3787 307.003 55.832C310.075 50.2853 314.342 46.0187 319.803 43.032C325.264 40.0453 331.536 38.552 338.619 38.552C345.531 38.552 351.675 40.0027 357.051 42.904C362.427 45.8053 366.608 49.944 369.595 55.32C372.667 60.696 374.203 66.968 374.203 74.136ZM351.803 68.376C351.803 64.6213 350.523 61.6347 347.963 59.416C345.403 57.1973 342.203 56.088 338.363 56.088C334.694 56.088 331.579 57.1547 329.019 59.288C326.544 61.4213 325.008 64.4507 324.411 68.376H351.803Z" fill="#F9FAFB"/>
</svg>
